<?xml version="1.0" encoding="UTF-8"?>
<svg id="SVGDoc" width="41" height="40" xmlns="http://www.w3.org/2000/svg" version="1.1" xmlns:xlink="http://www.w3.org/1999/xlink" xmlns:avocode="https://avocode.com/" viewBox="0 0 41 40"><defs></defs><desc>Generated with Avocode.</desc><g><g><title>Shape 1</title><path d="M29.35617,30.85324c0.69923,0 1.26617,0.61046 1.26617,1.36346c0,0.75299 -0.56694,1.36346 -1.26617,1.36346c-0.69923,0 -1.26606,-0.61046 -1.26606,-1.36346c0,-0.75299 0.56683,-1.36346 1.26606,-1.36346zM10.27475,27.19518c0.59635,-0.62864 1.33152,-1.01223 2.12379,-1.01223c0.7679,0 1.49483,0.38359 2.0993,0.98787c-1.62552,-0.35123 -3.07949,-0.22033 -4.2231,0.02436zM38.1862,39.98949h-34.64218c-1.62552,0 -2.89158,-1.55107 -2.63844,-3.26575c1.01292,-6.9809 5.20329,-12.85176 10.99468,-15.90517c-0.22053,0.92242 -0.41656,2.18807 -0.35122,3.71478c-2.6302,0.60428 -4.66415,3.8704 -4.66415,7.80588c0,1.52671 0.28587,2.98833 0.85762,4.25398c0.3186,0.85734 1.52756,1.2082 2.06669,1.2082c0.84949,0 1.55193,-0.72645 1.55193,-1.64924c0,-0.92279 -0.69431,-1.64924 -1.55193,-1.64924c-0.26138,0 -0.60448,0.06508 -0.98843,0.22033c-0.67795,-2.10663 -0.13069,-4.4416 0.15518,-5.29894c1.02116,-0.44103 3.81466,-1.39618 6.86153,0c0.31036,0.85734 0.80864,3.413 0.15518,5.29894c-0.38395,-0.15525 -0.73517,-0.22033 -0.98843,-0.22033c-0.84949,0 -1.55193,0.72645 -1.55193,1.64924c0,0.92279 0.69431,1.64924 1.55193,1.64924c0.57186,0 1.80519,-0.37559 2.0993,-1.30637c0.53913,-1.23293 0.825,-2.69455 0.825,-4.15581c0,-3.9682 -2.06657,-7.26668 -4.76212,-7.80588c-0.09808,-2.3186 0.44106,-3.87003 0.72693,-4.50704c1.80519,1.83721 4.28844,2.98033 6.98399,2.98033c2.76089,0 5.24414,-1.17584 7.08206,-3.07814c0.22865,0.09781 0.44918,0.18761 0.66982,0.28578c0.1878,1.1104 0.85762,5.46219 0.03262,8.82611c-1.37226,0.35123 -2.38518,1.62488 -2.38518,3.17631c0,1.77976 1.36414,3.23339 3.07949,3.23339c1.71535,0 3.07949,-1.4209 3.07949,-3.23339c0,-1.4289 -0.89035,-2.63711 -2.0993,-3.07814c0.60448,-2.8578 0.35133,-6.09919 0.09808,-8.00185c5.46467,3.11086 9.43451,8.82647 10.4147,15.58703c0.25326,1.71468 -1.01292,3.26575 -2.66293,3.26575zM12.27609,12.44113c0,-0.70209 0.08984,-1.36346 0.22053,-2.03282c0,0 4.03519,-1.26565 8.38074,-1.26565c4.35379,0 8.41347,1.26565 8.41347,1.26565c0.15518,0.66937 0.22053,1.33073 0.22053,2.03282c0,5.05424 -3.87177,9.14497 -8.634,9.14497c-4.76212,0 -8.634,-4.06637 -8.60126,-9.14497zM13.16644,8.44856c-0.57186,-2.38405 -1.17634,-4.79282 -1.74809,-7.17687c6.1916,-1.68196 12.7264,-1.68196 18.92624,0c-0.57186,2.38405 -1.14361,4.79282 -1.74809,7.17687c-5.0481,-1.37182 -10.39021,-1.37182 -15.43007,0zM18.55753,4.41528h1.61739v1.71432h1.39675v-1.71432h1.61739v-1.46163h-1.61739v-1.71468h-1.39675v1.71468h-1.61739z" fill="#ffffff" fill-opacity="1"></path></g></g></svg>