<?xml version="1.0" encoding="UTF-8"?>
<svg id="SVGDoc" width="40" height="40" xmlns="http://www.w3.org/2000/svg" version="1.1" xmlns:xlink="http://www.w3.org/1999/xlink" xmlns:avocode="https://avocode.com/" viewBox="0 0 40 40"><defs></defs><desc>Generated with Avocode.</desc><g><g><title>Forma 1</title><path d="M39.81583,19.22533c-0.13515,0.14544 -0.31918,0.21888 -0.50468,0.21888c-0.16823,0 -0.33726,-0.06036 -0.46955,-0.18325l-2.9781,-2.75018v23.5038h-31.71844v-23.5038l-2.9781,2.75018c-0.27855,0.25742 -0.7164,0.24142 -0.97435,-0.03563c-0.25921,-0.27742 -0.24273,-0.71154 0.03582,-0.96933l19.77585,-18.26122l19.77642,18.26122c0.27855,0.25778 0.29514,0.69191 0.03513,0.96933zM17.93564,27.67258h-8.27442v8.228h8.27442zM17.93564,15.33021h-8.27442v8.228h8.27442zM30.34721,27.67258h-8.27442v8.228h8.27442zM30.34721,15.33021h-8.27442v8.228h8.27442z" fill="#ffffff" fill-opacity="1"></path></g></g></svg>