<?xml version="1.0" encoding="UTF-8"?>
<svg id="SVGDoc" width="31" height="40" xmlns="http://www.w3.org/2000/svg" version="1.1" xmlns:xlink="http://www.w3.org/1999/xlink" xmlns:avocode="https://avocode.com/" viewBox="0 0 31 40"><defs></defs><desc>Generated with Avocode.</desc><g><g><title>Shape 1</title><path d="M22.84415,31.21742c0,0.63737 -0.5246,1.15621 -1.16936,1.15621c-0.64476,0 -1.16936,-0.51884 -1.16936,-1.15621c0,-0.63737 0.52471,-1.15621 1.16936,-1.15621c0.64476,0 1.16936,0.51884 1.16936,1.15621zM31.00493,8.71531v29.98477c0,0.72063 -0.59086,1.30455 -1.31962,1.30455h-28.37082c-0.72876,0 -1.31962,-0.58429 -1.31962,-1.30455v-37.40051c0,-0.72063 0.59097,-1.30455 1.31962,-1.30455h20.87013c0.35007,0 0.68573,0.13744 0.93315,0.38213l7.50057,7.41575c0.24742,0.24469 0.38647,0.57665 0.38658,0.92242zM5.51653,8.78221c0,0.72063 0.59086,1.30455 1.31962,1.30455h3.38905c0.72876,0 1.31962,-0.58392 1.31962,-1.30455c0,-0.72063 -0.59086,-1.30455 -1.31962,-1.30455h-3.38905c-0.72887,0 -1.31962,0.58392 -1.31962,1.30455zM11.54482,31.21742c0,-0.72063 -0.59086,-1.30492 -1.31962,-1.30492h-3.38905c-0.72887,0 -1.31962,0.58429 -1.31962,1.30492c0,0.72063 0.59086,1.30455 1.31962,1.30455h3.38905c0.72876,0 1.31962,-0.58392 1.31962,-1.30455zM25.48327,31.21742c0,-2.07645 -1.70849,-3.76568 -3.80848,-3.76568c-2.09999,0 -3.80848,1.68923 -3.80848,3.76568c0,2.07609 1.7086,3.76532 3.80848,3.76532c2.09999,0 3.80848,-1.68923 3.80848,-3.76532zM25.48338,20.71954c0,-0.72063 -0.59086,-1.30492 -1.31962,-1.30492h-17.32761c-0.72887,0 -1.31962,0.58429 -1.31962,1.30492c0,0.72063 0.59086,1.30455 1.31962,1.30455h17.3275c0.72887,0 1.31973,-0.58392 1.31973,-1.30455zM25.48338,14.75087c0,-0.72063 -0.59086,-1.30455 -1.31962,-1.30455h-17.32761c-0.72887,0 -1.31962,0.58392 -1.31962,1.30455c0,0.72063 0.59086,1.30455 1.31962,1.30455h17.3275c0.72887,0 1.31973,-0.58392 1.31973,-1.30455z" fill="#ffffff" fill-opacity="1"></path></g></g></svg>