<?xml version="1.0" encoding="UTF-8"?>
<svg id="SVGDoc" width="36" height="36" xmlns="http://www.w3.org/2000/svg" version="1.1" xmlns:xlink="http://www.w3.org/1999/xlink" xmlns:avocode="https://avocode.com/" viewBox="0 0 36 36"><defs></defs><desc>Generated with Avocode.</desc><g><g><title>Shape 1</title><path d="M11.5743,9.64716c0,2.84217 2.41367,4.84954 4.96136,4.71429c0.05928,-0.00327 0.11868,-0.00764 0.17807,-0.01309v2.37132h-4.0987c-0.98682,0 -1.60698,1.07186 -1.11282,1.92884c0.38921,0.67446 0.38006,1.47653 -0.00549,2.14481c-0.82523,1.43072 -2.87361,1.43108 -3.6993,0c-0.68825,-1.19293 0.0301,-2.17208 0.09922,-2.3775c0.28095,-0.83444 -0.34206,-1.69614 -1.21765,-1.69614c-0.69786,0 -6.08379,0 -6.66836,0v-12.85866c0,-2.12699 1.7292,-3.85767 3.8546,-3.85767h12.84851c0,0.53302 0,4.41251 0,4.94298c-2.6199,-0.24106 -5.13943,1.7994 -5.13943,4.70083zM35.9866,3.86101v12.85866c-0.53261,0 -4.40884,0 -4.93881,0c0.08812,-0.96205 -0.1284,-1.93174 -0.62256,-2.788c-1.81,-3.1374 -6.33545,-3.1454 -8.15014,0c-0.4985,0.86389 -0.71011,1.83103 -0.62244,2.788h-2.36927v-4.102c0,-0.98751 -1.07082,-1.60815 -1.92707,-1.11367c-1.39824,0.80753 -3.21224,-0.17707 -3.21224,-1.85648c0,-1.6776 1.81274,-2.6651 3.21224,-1.85685c0.85453,0.49375 1.92707,-0.12435 1.92707,-1.11367c0,-0.69845 0,-6.08865 0,-6.67366h12.84863c2.1254,0 3.85448,1.73068 3.8546,3.85767zM35.98649,19.29134v12.8583c0,2.12736 -1.72909,3.85767 -3.85448,3.85767h-12.84863c0,-0.53229 0,-4.41287 0,-4.94335c0.94894,0.08726 1.91643,-0.12071 2.78584,-0.62319c3.13522,-1.81176 3.14323,-6.34025 0,-8.15638c-0.86941,-0.50248 -1.83666,-0.71009 -2.78584,-0.62319v-2.36987h4.0987c0.98408,0 1.60858,-1.06931 1.11282,-1.92884c-0.39516,-0.685 -0.37308,-1.48853 0.00561,-2.14481c0.82993,-1.43872 2.88288,-1.41509 3.6993,0c0.38086,0.65991 0.3994,1.46199 0.00549,2.14481c-0.49324,0.85552 0.12428,1.92884 1.11282,1.92884c0.69786,0 6.08379,0 6.66836,0zM20.78416,28.21379c-0.6625,0.38286 -1.46393,0.39813 -2.14325,0.00545c-0.85464,-0.49375 -1.92719,0.12435 -1.92719,1.11367c0,0.697 0,6.09338 0,6.67439h-12.84851c-2.1254,0 -3.8546,-1.73032 -3.8546,-3.85731v-12.85866c0.53261,0 4.40884,0 4.93881,0c-0.08709,0.94969 0.12039,1.91793 0.62244,2.788c1.81217,3.14104 6.33705,3.14286 8.15014,0c0.50205,-0.87007 0.70965,-1.8383 0.62256,-2.788h2.36916v4.10091c0,0.84171 0.79811,1.45981 1.61465,1.24274c0.31906,-0.08472 1.245,-0.82316 2.4559,-0.12362c1.41495,0.81771 1.43875,2.87089 -0.00011,3.70242z" fill="#ffffff" fill-opacity="1"></path></g></g></svg>