<?xml version="1.0" encoding="UTF-8"?>
<svg id="SVGDoc" width="62" height="51" xmlns="http://www.w3.org/2000/svg" version="1.1" xmlns:xlink="http://www.w3.org/1999/xlink" xmlns:avocode="https://avocode.com/" viewBox="0 0 62 51"><defs></defs><desc>Generated with Avocode.</desc><g><g><title>Forma 1</title><path d="M59.66393,22.60511l-3.06633,1.42927c0.77156,0.4603 1.13491,1.41872 0.81654,2.29315l-2.61818,7.18996c-0.17452,0.47957 -0.52551,0.86243 -0.98843,1.07804c-0.25692,0.11998 -0.53135,0.17998 -0.80669,0.17998c-0.22053,0 -0.44174,-0.03854 -0.65517,-0.11598l-1.88931,-0.68755c-0.8749,1.42599 -2.43713,2.28006 -4.08131,2.28043c-0.54211,0 -1.0928,-0.09308 -1.6309,-0.28869l-16.4645,-5.98285c-0.90694,1.53252 -2.43496,2.51385 -4.11644,2.74982l-2.93816,8.06839c-0.95982,2.63747 -3.49148,4.4096 -6.29974,4.4096h-8.79318v2.86835c0,1.58125 -1.28723,2.86798 -2.86949,2.86798h-1.91311c-0.52814,0 -0.9565,-0.42794 -0.9565,-0.95587v-15.29725c0,-0.52829 0.42835,-0.95624 0.9565,-0.95624h1.91311c1.58226,0 2.86949,1.28674 2.86949,2.86835v2.86835h8.79318c0.40421,0 0.7687,-0.25524 0.90672,-0.63446l3.00133,-8.24182c-0.97206,-1.23038 -1.41861,-2.83853 -1.15093,-4.46632l-14.08894,-5.11969c-2.47845,-0.9017 -3.76076,-3.65006 -2.85885,-6.12719l2.94411,-8.08511c0.00011,-0.00036 0.00023,-0.00073 0.00023,-0.00073l1.30863,-3.59371c0.90191,-2.47676 3.65192,-3.75805 6.12991,-2.85708l48.34156,17.56968c1.8132,0.65955 2.12482,1.69614 2.1492,2.25534c0.02449,0.5592 -0.19558,1.61906 -1.94435,2.43386zM4.21913,36.60399c0,-0.5272 -0.42915,-0.95624 -0.9565,-0.95624h-0.9565v13.38514h0.9565c0.52734,0 0.9565,-0.42867 0.9565,-0.95587zM22.15488,32.65506c-0.25715,-0.05563 -0.51384,-0.12871 -0.76836,-0.22143c-0.35843,-0.13053 -0.69592,-0.29269 -1.01097,-0.48212l-2.7459,7.54046c-0.41222,1.13185 -1.49895,1.89248 -2.70435,1.89248h-8.79318v1.91211h8.79318c2.00684,0 3.81615,-1.26638 4.50211,-3.15122zM26.43417,29.31004l-6.90582,-2.50949c-0.07221,1.06859 0.30922,2.09827 1.02161,2.85671c0.04223,0.036 0.0808,0.07526 0.11559,0.11744c0.37994,0.37086 0.84354,0.66864 1.37524,0.86207c0.45422,0.16543 0.91896,0.23997 1.37455,0.23415c0.02197,-0.00145 0.04395,-0.00145 0.06615,-0.00145c1.1602,-0.03563 2.25403,-0.60028 2.95269,-1.55943zM54.19102,25.15605l-0.508,0.2367l-2.48177,6.81546l1.79901,0.65446l2.61646,-7.18923zM59.69242,20.25488c-0.04612,-0.08581 -0.27328,-0.3185 -0.88737,-0.54211l-48.34156,-17.56968c-1.48716,-0.54102 -3.13705,0.22797 -3.67825,1.71432l-0.98133,2.69492l-0.00011,0.00036l-0.3273,0.89915c-0.54085,1.48599 0.22854,3.13486 1.71524,3.67551l0.89905,0.32723c0.49644,0.18034 0.75233,0.72899 0.57175,1.22529c-0.1807,0.49593 -0.73002,0.75226 -1.22589,0.57156l-0.89916,-0.32723c-1.01109,-0.36759 -1.82281,-1.04313 -2.36858,-1.88193l-1.63662,4.49468c-0.54108,1.48635 0.2282,3.13522 1.71501,3.67624l41.15124,14.9533c1.48705,0.54102 3.13705,-0.22761 3.67825,-1.71396l2.17152,-5.96358c-1.11877,0.39667 -2.47055,0.60174 -3.79452,0.60174c-1.2109,0 -2.39765,-0.17052 -3.36033,-0.52102l-27.66781,-10.04813c-0.49656,-0.18034 -0.75279,-0.72899 -0.57243,-1.22529c0.18047,-0.4963 0.72933,-0.75226 1.22566,-0.57192l27.66838,10.04849c1.7474,0.63555 4.64699,0.50902 6.3319,-0.27596l1.43566,-0.66937c0.00057,0 0.00092,-0.00036 0.00137,-0.00036l1.22452,-0.57083c0.00057,-0.00036 0.00103,-0.00073 0.0016,-0.00073l5.11345,-2.38332c0.59235,-0.27633 0.79823,-0.52793 0.83668,-0.61737zM14.05521,14.6418c-0.14145,0.38831 -0.50812,0.62937 -0.89893,0.62937c-0.1086,0 -0.21915,-0.01854 -0.32707,-0.05781l-1.79787,-0.65446c-0.49644,-0.18034 -0.75233,-0.72936 -0.57163,-1.22529c0.1807,-0.49593 0.72968,-0.75226 1.22601,-0.5712l1.79787,0.6541c0.49644,0.1807 0.75245,0.72936 0.57163,1.22529z" fill="#01963c" fill-opacity="1"></path></g></g></svg>