<?xml version="1.0" encoding="UTF-8"?>
<svg id="SVGDoc" width="56" height="53" xmlns="http://www.w3.org/2000/svg" version="1.1" xmlns:xlink="http://www.w3.org/1999/xlink" xmlns:avocode="https://avocode.com/" viewBox="0 0 56 53"><defs></defs><desc>Generated with Avocode.</desc><g><g><title>Forma 1</title><path d="M11.35409,52.93982c-0.20702,0 -0.41393,-0.06363 -0.588,-0.18979c-0.30796,-0.22288 -0.46188,-0.59992 -0.39688,-0.97296l3.09071,-17.92127l-13.0901,-12.69069c-0.27191,-0.26469 -0.36999,-0.65955 -0.25291,-1.01877c0.11799,-0.35995 0.43098,-0.62246 0.80795,-0.67737l18.08876,-2.61493l8.0904,-16.30512c0.168,-0.34032 0.5159,-0.5552 0.89596,-0.5552c0.38097,0 0.72887,0.21488 0.89596,0.5552l8.08937,16.30512l18.08979,2.61493c0.37697,0.0549 0.68893,0.31632 0.80795,0.67737c0.11696,0.35923 0.01991,0.75517 -0.25303,1.01877l-13.0901,12.69251l3.08979,17.92054c0.06397,0.37304 -0.08995,0.75008 -0.397,0.97296c-0.30796,0.2247 -0.71697,0.25342 -1.05389,0.07526l-16.17886,-8.46034l-16.18092,8.46034c-0.14603,0.07563 -0.30602,0.11344 -0.46497,0.11344zM3.21665,21.14692l12.01515,11.65046c0.23495,0.22761 0.34298,0.55811 0.28702,0.88025l-2.83688,16.44946l14.85306,-7.76625c0.29091,-0.15307 0.63789,-0.15307 0.93086,0l14.851,7.76625l-2.83573,-16.44946c-0.05608,-0.32214 0.05196,-0.65155 0.2869,-0.88025l12.01515,-11.65046l-16.60378,-2.40005c-0.32604,-0.04654 -0.60699,-0.25051 -0.75302,-0.54393l-7.42641,-14.96566l-7.42653,14.96675c-0.14603,0.29342 -0.42698,0.49703 -0.75291,0.54393z" fill="#01963c" fill-opacity="1"></path></g></g></svg>