<?xml version="1.0" encoding="UTF-8"?>
<svg id="SVGDoc" width="62" height="54" xmlns="http://www.w3.org/2000/svg" version="1.1" xmlns:xlink="http://www.w3.org/1999/xlink" xmlns:avocode="https://avocode.com/" viewBox="0 0 62 54"><defs></defs><desc>Generated with Avocode.</desc><g><g><title>Forma 1</title><path d="M45.45288,41.97578h-28.90217c-0.51853,0 -0.93945,-0.41922 -0.93945,-0.93551v-15.19545c0,-4.24671 -3.47019,-7.69862 -7.73335,-7.69862c-3.3086,0 -5.99911,2.6771 -5.99911,5.97194c0,2.53312 2.06863,4.59103 4.61071,4.59103c1.92959,0 3.50029,-1.56416 3.50029,-3.48536c0,-1.43508 -1.17245,-2.60257 -2.61349,-2.60257c-0.51853,0 -0.93945,-0.41885 -0.93945,-0.93515c0,-0.51666 0.42091,-0.93551 0.93945,-0.93551c2.47627,0 4.49226,2.00555 4.49226,4.47323c0,2.63447 -1.91855,4.83001 -4.43779,5.27434v16.59623c0,1.09622 0.89813,1.98883 1.99722,1.98883h43.35056c1.10092,0 1.99711,-0.89443 1.99711,-1.98883v-16.56399c-2.61857,-0.35788 -4.64252,-2.6007 -4.64252,-5.30658c0,-2.46586 2.01405,-4.47323 4.49043,-4.47323c0.51853,0 0.93933,0.41885 0.93933,0.93551c0,0.5163 -0.4208,0.93515 -0.93933,0.93515c-1.44115,0 -2.61166,1.16748 -2.61166,2.60257c0,1.9212 1.56887,3.48536 3.49846,3.48536c2.54391,0 4.6106,-2.05973 4.6106,-4.59103c0,-3.29484 -2.69051,-5.97194 -5.99728,-5.97194c-4.26487,0 -7.7314,3.45373 -7.7314,7.69862v7.21332c0.00129,0.02005 0.00195,0.04026 0.00195,0.06063c0,0.02037 -0.00066,0.04058 -0.00195,0.06063v7.86087c0,0.5163 -0.41897,0.93551 -0.93945,0.93551zM0.00004,24.11814c0,-4.32561 3.53405,-7.84296 7.87605,-7.84296c0.54527,0 1.08007,0.04545 1.6008,0.13273v-5.29423c0,-6.12174 5.00336,-11.10581 11.15284,-11.10581h20.94337c6.14754,0 11.15284,4.98225 11.15284,11.10581v5.2625c0.45642,-0.06654 0.92314,-0.101 1.39778,-0.101c4.34395,0 7.87617,3.51917 7.87617,7.84296c0,3.17345 -2.31141,5.8214 -5.34531,6.36141v16.61483c0,2.12699 -1.7379,3.85949 -3.876,3.85949h-6.38626v2.10118c0,0.5163 -0.41897,0.93551 -0.93945,0.93551c-0.51853,0 -0.93933,-0.41922 -0.93933,-0.93551l0,-2.10118h-27.02339v2.10118c0,0.5163 -0.42091,0.93551 -0.93945,0.93551c-0.51853,0 -0.93945,-0.41922 -0.93945,-0.93551l0,-2.10118h-6.18324c-2.1381,0 -3.876,-1.7325 -3.876,-3.85949l0,-16.58148c-3.13498,-0.454 -5.55199,-3.14962 -5.55199,-6.39476zM17.48821,25.84482v6.33844h27.02534v-6.33844c0,-4.13054 2.64319,-7.65931 6.3335,-8.9966v-5.73455c0,-5.09278 -4.1597,-9.23478 -9.27395,-9.23478h-20.94337c-5.11425,0 -9.27406,4.142 -9.27406,9.23478v5.81028c3.58536,1.39111 6.13255,4.86603 6.13255,8.92087zM17.48821,40.10475h27.02534l0,-6.05047h-27.02534z" fill="#01963c" fill-opacity="1"></path></g></g></svg>