<?xml version="1.0" encoding="UTF-8"?>
<svg id="SVGDoc" width="62" height="62" xmlns="http://www.w3.org/2000/svg" version="1.1" xmlns:xlink="http://www.w3.org/1999/xlink" xmlns:avocode="https://avocode.com/" viewBox="0 0 62 62"><defs></defs><desc>Generated with Avocode.</desc><g><g><title>Forma 1</title><path d="M54.34373,15.1029c3.44501,4.62048 5.266,10.11757 5.266,15.89681c0,14.67842 -11.94145,26.61976 -26.61964,26.61976c-0.68768,0 -1.24546,-0.55738 -1.24546,-1.24529c0,-0.68755 0.55779,-1.24529 1.24546,-1.24529c13.30467,0 24.12884,-10.82439 24.12884,-24.12918c0,-5.23858 -1.65024,-10.22083 -4.7723,-14.40791c-0.41096,-0.5512 -0.2972,-1.33146 0.25406,-1.74268c0.55149,-0.41158 1.33175,-0.29778 1.74305,0.25378zM31.74451,5.6256c0,-0.68755 0.55767,-1.24529 1.24535,-1.24529c5.06344,0 9.98909,1.42745 14.2448,4.12818c0.58079,0.36868 0.75291,1.13803 0.38441,1.71868c-0.23724,0.37377 -0.64053,0.57847 -1.05286,0.57847c-0.22831,0 -0.45902,-0.0629 -0.66593,-0.19416c-3.85609,-2.44695 -8.32031,-3.74023 -12.91019,-3.74023c-0.68768,0 -1.24557,-0.55774 -1.24557,-1.24565zM61.23524,2.52601l-16.14109,16.14114c3.19862,3.13922 5.18761,7.50701 5.18761,12.33255c0,9.53401 -7.75681,17.29081 -17.29134,17.29081c-0.68756,0 -1.24535,-0.55738 -1.24535,-1.24529c0,-0.68791 0.55779,-1.24529 1.24535,-1.24529c8.16124,0 14.80053,-6.63949 14.80053,-14.80023c0,-4.13873 -1.70952,-7.88369 -4.45713,-10.57242l-4.4957,4.49577c1.59599,1.53616 2.59186,3.69151 2.59186,6.07665c0,4.65357 -3.78582,8.43961 -8.43956,8.43961c-0.68756,0 -1.24535,-0.55774 -1.24535,-1.24529c0,-0.68791 0.55779,-1.24529 1.24535,-1.24529c3.28033,0 5.94875,-2.66874 5.94875,-5.94903c0,-1.69832 -0.71629,-3.23121 -1.86138,-4.31616l-18.97533,18.97531l7.72316,7.71171v-12.40782c0,-0.68755 0.55779,-1.24529 1.24546,-1.24529c0.68768,0 1.24546,0.55774 1.24546,1.24529v15.41106c0,0.50357 -0.30327,0.95769 -0.76847,1.15039c-0.15427,0.06436 -0.31631,0.09526 -0.47676,0.09526c-0.32387,0 -0.64224,-0.12617 -0.88028,-0.36432l-9.84993,-9.8347l-13.81474,13.81454c-0.2433,0.24324 -0.5619,0.36468 -0.88074,0.36468c-0.31883,0 -0.63766,-0.12144 -0.88074,-0.36468c-0.48626,-0.48648 -0.48626,-1.27474 0,-1.76122l13.81325,-13.81345l-1.54884,-1.54634h-11.3839c-0.68768,0 -1.24535,-0.55774 -1.24535,-1.24565v-23.73686c0,-0.68791 0.55767,-1.24565 1.24535,-1.24565h11.3839l13.16128,-13.14154c0.35637,-0.35559 0.89172,-0.46139 1.35704,-0.26906c0.4652,0.19307 0.76847,0.64682 0.76847,1.15039v23.09113c0,0.68791 -0.55779,1.24529 -1.24535,1.24529c-0.68779,0 -1.24546,-0.55738 -1.24546,-1.24529v-20.08753l-11.40095,11.38359c-0.23346,0.23306 -0.54977,0.36395 -0.87982,0.36395h-10.65365v21.24628h10.65365c0.33005,0 0.64636,0.13126 0.87982,0.36432l1.91505,1.91211l18.53897,-18.53901c-0.59361,-0.19961 -1.22818,-0.30905 -1.88828,-0.30905c-0.68768,0 -1.24546,-0.55774 -1.24546,-1.24529c0,-0.68791 0.55779,-1.24565 1.24546,-1.24565c1.36127,0 2.64736,0.32578 3.78708,0.90097l4.62742,-4.62739c-2.39101,-1.65869 -5.29037,-2.63456 -8.4145,-2.63456c-0.68768,0 -1.24546,-0.55738 -1.24546,-1.24529c0,-0.68755 0.55779,-1.24529 1.24546,-1.24529c3.81203,0 7.33795,1.24238 10.19955,3.33992l16.28448,-16.28403c0.48592,-0.48648 1.27487,-0.48648 1.76102,0c0.48626,0.48612 0.48626,1.27474 0.00011,1.76122z" fill="#01963c" fill-opacity="1"></path></g></g></svg>