<?xml version="1.0" encoding="UTF-8"?>
<svg id="SVGDoc" width="50" height="50" xmlns="http://www.w3.org/2000/svg" version="1.1" xmlns:xlink="http://www.w3.org/1999/xlink" xmlns:avocode="https://avocode.com/" viewBox="0 0 50 50"><defs></defs><desc>Generated with Avocode.</desc><g><g><title>Shape 1</title><path d="M49.50119,1.70252c-0.05344,0.38395 -0.10666,0.90606 -0.17063,1.54525c-0.70324,6.91618 -2.56805,25.29811 -12.57442,35.53894c-5.4134,5.54145 -10.36858,7.27831 -14.46064,7.27831c-5.2002,0 -8.9938,-2.81308 -10.53898,-4.18781c-0.20245,-0.19197 -0.46886,-0.43703 -0.75657,-0.71409c-1.02299,1.45981 -3.72963,4.81645 -8.85544,8.17347c-0.50091,0.31959 -1.16158,0.18107 -1.48121,-0.30905c-0.31963,-0.50102 -0.18127,-1.16166 0.30899,-1.48126c5.32825,-3.48463 7.87502,-6.99071 8.5144,-7.9495c-0.18116,-0.20252 -0.35168,-0.39449 -0.47951,-0.56502c-3.63373,-4.62484 -8.07747,-14.08759 3.04768,-25.47918c9.88907,-10.12339 27.65316,-12.09513 34.34532,-12.83031c0.77797,-0.08508 1.41735,-0.15962 1.89686,-0.22361c0.33039,-0.04254 0.66067,0.06399 0.89516,0.29814c0.23438,0.23451 0.35156,0.55411 0.30899,0.9057zM47.2419,2.7791l-0.60734,0.06363c-6.47896,0.71409 -23.69957,2.62147 -33.04516,12.2122c-9.49471,9.70781 -6.81999,17.68966 -2.89845,22.6661c0.02129,0.032 0.06397,0.07454 0.0959,0.11708c0.89516,-1.2042 1.86481,-2.56802 2.95177,-4.10273c6.511,-9.17479 15.41965,-21.73895 26.45954,-25.73478c0.55412,-0.20252 1.16146,0.08508 1.36402,0.63919c0.20245,0.55411 -0.08526,1.16166 -0.63938,1.36418c-10.40051,3.76168 -19.44763,16.50655 -25.43655,24.94652c-1.18286,1.67287 -2.23778,3.16467 -3.20755,4.45432c0.33039,0.33014 0.65002,0.63919 0.9058,0.86316c3.07972,2.73855 11.38092,7.93895 22.05849,-2.99451c9.48406,-9.70781 11.35952,-28.18609 11.97773,-34.2602c0,-0.07454 0.01064,-0.15962 0.02117,-0.23415z" fill="#01963c" fill-opacity="1"></path></g></g></svg>