<?xml version="1.0" encoding="UTF-8"?>
<svg id="SVGDoc" width="70" height="88" xmlns="http://www.w3.org/2000/svg" version="1.1" xmlns:xlink="http://www.w3.org/1999/xlink" xmlns:avocode="https://avocode.com/" viewBox="0 0 70 88"><defs></defs><desc>Generated with Avocode.</desc><g><g><title>Shape 1</title><path d="M67.60872,46.6604l-1.59657,0.90024c-1.73996,0.97224 -2.67277,2.9527 -2.314,4.9328l0.32284,1.80013c0.52025,2.75455 -1.50684,5.34693 -4.30515,5.50873l-1.82968,0.10835c-1.99127,0.1258 -3.6953,1.51216 -4.21566,3.43845l-0.48431,1.76413c-0.7354,2.70037 -3.67733,4.15872 -6.26049,3.0785l-1.68606,-0.70209c-1.84776,-0.75626 -3.98243,-0.25197 -5.29198,1.2602l-1.20174,1.386c-1.82968,2.12445 -5.11242,2.14263 -6.97803,0.05417l-1.21983,-1.36818c-1.34537,-1.49435 -3.48003,-1.96229 -5.30983,-1.17039l-1.68606,0.72027c-2.58316,1.11622 -5.54306,-0.28796 -6.31439,-2.98833l-0.50217,-1.76413c-0.55618,-1.92665 -2.27818,-3.27666 -4.26945,-3.36683l-1.82968,-0.07199c-2.79831,-0.10799 -4.86122,-2.66438 -4.39487,-5.43674l0.30499,-1.81831c0.34081,-1.9801 -0.62794,-3.94239 -2.38575,-4.89644l-1.61453,-0.86425c-2.4575,-1.33219 -3.21098,-4.53686 -1.59657,-6.8231l1.05846,-1.49398c1.16592,-1.63833 1.14796,-3.83477 -0.03593,-5.45492l-1.07632,-1.47617c-1.65035,-2.26843 -0.95066,-5.47273 1.50684,-6.84091l1.59657,-0.90024c1.73996,-0.97224 2.67277,-2.95234 2.314,-4.9328l-0.32295,-1.80013c-0.52013,-2.75455 1.50684,-5.34693 4.30527,-5.50873l1.8298,-0.10799c1.99104,-0.12617 3.69518,-1.51253 4.21543,-3.43845l0.48431,-1.76449c0.73551,-2.70037 3.67733,-4.15872 6.26049,-3.0785l1.68629,0.70209c1.84765,0.75626 3.9822,0.25233 5.29175,-1.2602l1.20186,-1.386c1.8298,-2.12445 5.11242,-2.14226 6.97803,-0.05417l1.21971,1.36818c1.34537,1.49435 3.48015,1.96229 5.30983,1.17039l1.68629,-0.72027c2.58305,-1.11622 5.54283,0.28796 6.31416,2.98833l0.50228,1.76449c0.55618,1.92629 2.27818,3.27629 4.26933,3.36646l1.8298,0.07199c2.79831,0.10799 4.86122,2.66438 4.39487,5.43674l-0.30499,1.81831c-0.34092,1.9801 0.62782,3.94239 2.38586,4.89681l1.61442,0.86389c2.4575,1.33219 3.21087,4.53686 1.59645,6.8231l-1.05835,1.49435c-1.16592,1.63797 -1.14807,3.8344 0.03582,5.45455l1.07632,1.47617c1.65035,2.26843 0.95078,5.49091 -1.50673,6.84091zM58.29872,35.85892c0,-12.90775 -10.45807,-23.40309 -23.31985,-23.40309c-12.86179,0 -23.31985,10.49534 -23.31985,23.40309c0,12.90811 10.45807,23.40345 23.31985,23.40345c12.86179,0 23.31985,-10.49534 23.31985,-23.40345zM65.58163,76.36484c0.39471,0.70209 0.44849,1.54816 0.14351,2.30442l-3.03154,7.59718c-0.48431,1.20602 -1.74007,1.8903 -2.99583,1.65614l-8.0183,-1.49435c-0.7893,-0.14398 -1.47102,-0.64791 -1.86562,-1.35l-6.65508,-12.15185l0.43041,-0.50393l1.36333,0.57592c1.18401,0.48612 2.43965,0.73808 3.73123,0.73808c4.39487,0 8.28747,-2.97052 9.45351,-7.23686l0.39459,-1.44017l0.80727,-0.05417zM26.94237,72.56644l0.0539,0.05381l-6.83453,12.47581c-0.39459,0.70209 -1.07632,1.20639 -1.86562,1.35037l-8.01842,1.49398c-1.25565,0.23415 -2.51141,-0.44976 -2.99561,-1.65614l-3.03165,-7.59718c-0.30499,-0.7559 -0.25108,-1.60197 0.14351,-2.30406l6.02726,-11.01782l1.43509,0.05417l0.41256,1.42199c1.20197,4.1769 5.0766,7.09324 9.41769,7.09324c1.34537,0 2.63695,-0.27015 3.87463,-0.81007zM48.37875,39.35155c0,0 1.59645,2.64656 -1.21983,4.77064c0,0 1.29158,3.63661 -3.91056,4.75283c-1.5247,0.32396 -3.46207,0.30578 -5.2739,0.1618c-1.99116,0.036 -3.9822,-0.05381 -5.59662,-0.1618c-4.50256,-0.48612 -4.5385,-8.33526 -4.5385,-8.58723v6.53477c0,1.45835 -0.52025,1.98047 -0.60986,2.07027c-0.41267,0.28796 -0.91496,0.45012 -1.45306,0.45012h-3.92853c-1.43497,0 -2.61898,-1.17003 -2.61898,-2.62838v-10.51352c0,-1.44017 1.16604,-2.62838 2.61898,-2.62838h3.92853c0.64579,0 1.23779,0.23415 1.70414,0.6301c0.21526,-0.64791 0.64579,-1.56634 1.41712,-2.39423c2.92397,-2.25025 5.99144,-10.72949 5.99144,-10.72949c0,0 -0.48443,-3.0785 0.95078,-3.0785c1.43509,0 4.84325,0.97224 2.79831,7.18305c-2.04494,6.21082 0,5.25676 0,5.25676c0.46646,-0.10799 0.89687,-0.19816 1.30943,-0.27015c0,0 5.90183,-1.33219 8.07232,0.66609c1.73996,1.60233 0.39459,3.7086 0.39459,3.7086c0,0 2.43965,2.19644 -0.03582,4.80664z" fill="#ffffff" fill-opacity="1"></path></g></g></svg>